<mxfile host="65bd71144e" modified="2021-01-01T04:27:08.217Z" agent="5.0 (Macintosh; Intel Mac OS X 10_15_6) AppleWebKit/537.36 (KHTML, like Gecko) Code/1.52.1 Chrome/83.0.4103.122 Electron/9.3.5 Safari/537.36" version="13.10.0" etag="VT5gYoqSrHfb3OQqeKAJ" type="embed">
    <diagram id="iVdXU0uJmso3mB9nMhAj" name="第 1 页">
        <mxGraphModel dx="1378" dy="815" grid="1" gridSize="10" guides="1" tooltips="1" connect="1" arrows="1" fold="1" page="1" pageScale="1" pageWidth="827" pageHeight="1169" math="0" shadow="0">
            <root>
                <mxCell id="0"/>
                <mxCell id="1" parent="0"/>
                <mxCell id="10" style="edgeStyle=orthogonalEdgeStyle;rounded=0;orthogonalLoop=1;jettySize=auto;html=1;entryX=0;entryY=0.25;entryDx=0;entryDy=0;" edge="1" parent="1" source="2" target="9">
                    <mxGeometry relative="1" as="geometry">
                        <Array as="points">
                            <mxPoint x="70" y="68"/>
                            <mxPoint x="155" y="68"/>
                        </Array>
                    </mxGeometry>
                </mxCell>
                <mxCell id="2" value="with" style="rounded=0;whiteSpace=wrap;html=1;" vertex="1" parent="1">
                    <mxGeometry x="10" y="190" width="120" height="160" as="geometry"/>
                </mxCell>
                <mxCell id="8" style="edgeStyle=orthogonalEdgeStyle;rounded=0;orthogonalLoop=1;jettySize=auto;html=1;entryX=0;entryY=0.5;entryDx=0;entryDy=0;" edge="1" parent="1" source="3" target="7">
                    <mxGeometry relative="1" as="geometry"/>
                </mxCell>
                <mxCell id="3" value="load" style="rounded=0;whiteSpace=wrap;html=1;" vertex="1" parent="1">
                    <mxGeometry x="10" y="350" width="120" height="110" as="geometry"/>
                </mxCell>
                <mxCell id="6" style="edgeStyle=orthogonalEdgeStyle;rounded=0;orthogonalLoop=1;jettySize=auto;html=1;entryX=0.008;entryY=0.108;entryDx=0;entryDy=0;entryPerimeter=0;" edge="1" parent="1" source="4" target="5">
                    <mxGeometry relative="1" as="geometry"/>
                </mxCell>
                <mxCell id="4" value="into" style="rounded=0;whiteSpace=wrap;html=1;" vertex="1" parent="1">
                    <mxGeometry x="10" y="460" width="120" height="40" as="geometry"/>
                </mxCell>
                <mxCell id="5" value="&lt;div&gt;&lt;ol&gt;&lt;li style=&quot;text-align: justify&quot;&gt;&lt;span&gt;运行队列，等待队列&lt;/span&gt;&lt;/li&gt;&lt;li style=&quot;text-align: justify&quot;&gt;活动缓存&lt;/li&gt;&lt;li style=&quot;text-align: justify&quot;&gt;&lt;span&gt;内存缓存&lt;/span&gt;&lt;/li&gt;&lt;li style=&quot;text-align: justify&quot;&gt;&lt;span&gt;网络模型&lt;/span&gt;&lt;/li&gt;&lt;/ol&gt;&lt;/div&gt;" style="rounded=0;whiteSpace=wrap;html=1;align=left;" vertex="1" parent="1">
                    <mxGeometry x="210" y="460" width="170" height="185" as="geometry"/>
                </mxCell>
                <mxCell id="7" value="构建RequestBuilder对象" style="rounded=0;whiteSpace=wrap;html=1;" vertex="1" parent="1">
                    <mxGeometry x="200" y="350" width="180" height="40" as="geometry"/>
                </mxCell>
                <mxCell id="13" style="edgeStyle=orthogonalEdgeStyle;rounded=0;orthogonalLoop=1;jettySize=auto;html=1;entryX=0;entryY=0.75;entryDx=0;entryDy=0;" edge="1" parent="1" source="9" target="11">
                    <mxGeometry relative="1" as="geometry"/>
                </mxCell>
                <mxCell id="19" style="edgeStyle=orthogonalEdgeStyle;rounded=0;orthogonalLoop=1;jettySize=auto;html=1;entryX=0.75;entryY=-0.05;entryDx=0;entryDy=0;entryPerimeter=0;" edge="1" parent="1" source="9" target="14">
                    <mxGeometry relative="1" as="geometry"/>
                </mxCell>
                <mxCell id="9" value="空白的Fragment管理&lt;br&gt;声明周期机制" style="rounded=0;whiteSpace=wrap;html=1;align=center;" vertex="1" parent="1">
                    <mxGeometry x="180" y="50" width="170" height="70" as="geometry"/>
                </mxCell>
                <mxCell id="11" value="监听Fragment/Activity声明周期" style="rounded=0;whiteSpace=wrap;html=1;" vertex="1" parent="1">
                    <mxGeometry x="400" y="55" width="190" height="40" as="geometry"/>
                </mxCell>
                <mxCell id="18" value="" style="group" vertex="1" connectable="0" parent="1">
                    <mxGeometry x="280" y="150" width="240" height="170" as="geometry"/>
                </mxCell>
                <mxCell id="15" value="" style="group" vertex="1" connectable="0" parent="18">
                    <mxGeometry y="40" width="120" height="110" as="geometry"/>
                </mxCell>
                <mxCell id="12" value="onStart&lt;br&gt;&lt;br&gt;onStop" style="rounded=0;whiteSpace=wrap;html=1;" vertex="1" parent="15">
                    <mxGeometry width="120" height="110" as="geometry"/>
                </mxCell>
                <mxCell id="14" value="MainActivity" style="text;html=1;align=center;verticalAlign=middle;resizable=0;points=[];autosize=1;" vertex="1" parent="15">
                    <mxGeometry width="80" height="20" as="geometry"/>
                </mxCell>
                <mxCell id="16" value="onStart&lt;br&gt;&lt;br&gt;onStop" style="rounded=0;whiteSpace=wrap;html=1;" vertex="1" parent="18">
                    <mxGeometry x="120" width="120" height="170" as="geometry"/>
                </mxCell>
                <mxCell id="17" value="空白的Fragment" style="text;html=1;align=center;verticalAlign=middle;resizable=0;points=[];autosize=1;" vertex="1" parent="18">
                    <mxGeometry x="120" y="10" width="100" height="20" as="geometry"/>
                </mxCell>
                <mxCell id="27" style="edgeStyle=orthogonalEdgeStyle;rounded=0;orthogonalLoop=1;jettySize=auto;html=1;exitX=1;exitY=0.5;exitDx=0;exitDy=0;entryX=-0.012;entryY=0.356;entryDx=0;entryDy=0;entryPerimeter=0;" edge="1" parent="1" source="16" target="20">
                    <mxGeometry relative="1" as="geometry"/>
                </mxCell>
                <mxCell id="28" value="" style="group" vertex="1" connectable="0" parent="1">
                    <mxGeometry x="569" y="126" width="250" height="270" as="geometry"/>
                </mxCell>
                <mxCell id="20" value="" style="rounded=0;whiteSpace=wrap;html=1;" vertex="1" parent="28">
                    <mxGeometry y="20" width="250" height="250" as="geometry"/>
                </mxCell>
                <mxCell id="21" value="Glide 设计" style="text;html=1;align=center;verticalAlign=middle;resizable=0;points=[];autosize=1;" vertex="1" parent="28">
                    <mxGeometry x="90" width="70" height="20" as="geometry"/>
                </mxCell>
                <mxCell id="22" value="onStart&lt;br&gt;&lt;br&gt;onStop" style="rounded=0;whiteSpace=wrap;html=1;" vertex="1" parent="28">
                    <mxGeometry x="5" y="90" width="90" height="110" as="geometry"/>
                </mxCell>
                <mxCell id="23" value="RequestManager" style="text;html=1;align=center;verticalAlign=middle;resizable=0;points=[];autosize=1;" vertex="1" parent="28">
                    <mxGeometry x="8" y="50" width="110" height="20" as="geometry"/>
                </mxCell>
                <mxCell id="24" value="GlideTarget&lt;br&gt;&lt;br&gt;ImageViewTarget&lt;br&gt;。。。" style="rounded=0;whiteSpace=wrap;html=1;" vertex="1" parent="28">
                    <mxGeometry x="125" y="90" width="100" height="110" as="geometry"/>
                </mxCell>
                <mxCell id="26" style="edgeStyle=orthogonalEdgeStyle;rounded=0;orthogonalLoop=1;jettySize=auto;html=1;exitX=1;exitY=0.5;exitDx=0;exitDy=0;entryX=0;entryY=0.5;entryDx=0;entryDy=0;" edge="1" parent="28" source="22" target="24">
                    <mxGeometry relative="1" as="geometry"/>
                </mxCell>
            </root>
        </mxGraphModel>
    </diagram>
</mxfile>